<svg width="8" height="10" viewBox="0 0 8 10" fill="none" xmlns="http://www.w3.org/2000/svg">
<path fill-rule="evenodd" clip-rule="evenodd" d="M0.592108 5.58026C0.898455 4.59923 1.44988 3.3428 2.43362 2.31732C4.3619 0.307234 7.1646 0.0103708 7.23568 0.00270656C7.32584 -0.00700532 7.41681 0.00953341 7.4985 0.0504848C7.58018 0.0914362 7.64937 0.155196 7.69838 0.234679C7.80034 0.394607 8.3748 1.40118 7.60476 2.61725C7.56453 2.67973 7.51927 2.73853 7.46948 2.79302C7.47594 2.85644 7.47095 2.92056 7.45478 2.98207C7.36165 3.33412 7.24205 3.70353 7.08716 4.07295C6.81708 4.71829 6.43623 5.37077 5.89951 5.93078C4.89469 6.97823 3.5752 7.45903 2.54489 7.68334C2.07915 7.78448 1.60678 7.84904 1.13177 7.87648C1.11657 8.00218 0.980311 9.26934 0.980311 9.48905C0.980311 9.62456 0.92867 9.75452 0.836748 9.85035C0.744826 9.94617 0.620153 10 0.490156 10C0.360158 10 0.235485 9.94617 0.143563 9.85035C0.0516413 9.75452 0 9.62456 0 9.48905C0 9.19729 0.0568582 8.63576 0.108324 8.18101C0.208806 7.29604 0.326934 6.42998 0.592108 5.58026ZM6.7862 2.05469C7.04452 1.64593 7.04109 1.29848 6.98962 1.07366C6.24115 1.21417 4.4315 1.67965 3.1267 3.04032C2.29148 3.91047 1.80328 5.00238 1.52438 5.89654C1.42764 6.20693 1.34681 6.52246 1.28225 6.8418C1.6392 6.81285 1.99399 6.75994 2.34441 6.68341C3.28551 6.47801 4.39278 6.05596 5.20594 5.20778C5.62258 4.77347 5.93333 4.25894 6.16371 3.72346C5.68532 3.98916 5.17457 4.22726 4.81137 4.35347C4.688 4.39629 4.55337 4.38627 4.43709 4.32561C4.3208 4.26496 4.2324 4.15863 4.19132 4.03003C4.15024 3.90143 4.15985 3.76109 4.21804 3.63987C4.27623 3.51866 4.37822 3.4265 4.50159 3.38368C4.83195 3.26871 5.36328 3.01937 5.85148 2.73732C6.09361 2.59732 6.31517 2.45477 6.48917 2.32447C6.67739 2.18345 6.76366 2.08995 6.7862 2.05469Z" fill="#9E090F"/>
</svg>
